<?xml version="1.0" standalone="no"?>
<!DOCTYPE svg PUBLIC "-//W3C//DTD SVG 20010904//EN"
 "http://www.w3.org/TR/2001/REC-SVG-20010904/DTD/svg10.dtd">
<svg version="1.0" xmlns="http://www.w3.org/2000/svg"
 width="512.000000pt" height="512.000000pt" viewBox="0 0 512.000000 512.000000"
 preserveAspectRatio="xMidYMid meet">
<metadata>
Created by potrace 1.14, written by Peter Selinger 2001-2017
</metadata>
<g transform="translate(0.000000,512.000000) scale(0.100000,-0.100000)"
fill="#000000" stroke="none">
<path d="M1640 5080 c-133 -37 -388 -119 -435 -140 -11 -5 -60 -25 -110 -45
-133 -54 -311 -148 -387 -205 -125 -94 -210 -252 -297 -552 -41 -142 -113
-501 -135 -673 -2 -16 -7 -52 -11 -80 -11 -84 -14 -108 -20 -165 -36 -350 -37
-376 -1 -411 58 -58 477 -197 676 -224 30 -4 68 -9 85 -11 16 -2 37 -6 46 -9
15 -5 16 -106 16 -1141 0 -1102 0 -1136 19 -1160 20 -26 43 -42 104 -67 76
-32 282 -91 354 -102 21 -3 41 -7 45 -9 3 -2 24 -7 46 -10 22 -4 67 -11 100
-16 33 -5 76 -11 95 -14 19 -2 51 -7 70 -10 19 -3 69 -8 110 -11 41 -2 109 -8
150 -12 105 -10 673 -10 800 1 58 4 119 9 135 11 49 4 165 16 183 19 9 2 40 7
67 10 96 14 149 23 235 42 14 3 39 8 55 11 58 10 258 74 320 102 108 49 98
-80 98 1217 0 624 3 1136 6 1138 3 2 32 7 64 10 32 4 64 9 70 11 7 2 30 7 52
10 188 26 569 156 628 214 36 35 38 83 12 316 -9 82 -17 152 -20 170 -1 11 -6
49 -9 85 -4 36 -11 85 -16 110 -5 25 -12 65 -15 90 -7 62 -21 146 -34 200 -5
25 -12 59 -15 75 -3 17 -13 62 -21 100 -22 97 -23 104 -30 125 -3 10 -8 28
-10 40 -10 51 -90 270 -122 335 -68 135 -112 188 -215 258 -183 125 -523 262
-913 369 -142 39 -152 40 -210 29 -52 -10 -252 -44 -325 -56 -14 -2 -52 -7
-85 -11 -33 -3 -68 -8 -77 -9 -29 -6 -171 -18 -208 -19 -39 0 -202 14 -210 19
-3 2 -35 6 -71 9 -37 4 -145 20 -240 37 -249 44 -235 44 -399 -1z"/>
</g>
</svg>
